<svg xmlns="http://www.w3.org/2000/svg" xmlns:xlink="http://www.w3.org/1999/xlink" width="1080" zoomAndPan="magnify" viewBox="0 0 810 809.999993" height="1080" preserveAspectRatio="xMidYMid meet" version="1.0"><defs><clipPath id="70b2c30f7f"><path d="M 14 140.800781 L 794 140.800781 L 794 669 L 14 669 Z M 14 140.800781 " clip-rule="nonzero"/></clipPath></defs><g clip-path="url(#70b2c30f7f)"><path fill="#ffffff" d="M 770.585938 385.800781 C 736.585938 256.125 697.402344 170.8125 607.140625 146.300781 C 593.363281 142.574219 580.390625 140.75 567.480469 140.75 C 540.242188 140.75 518.332031 148.953125 497.085938 156.902344 C 477.546875 164.210938 455.726562 172.21875 425.539062 174.933594 L 402.949219 175.59375 C 402.949219 175.714844 334.714844 165.714844 310.960938 156.816406 C 289.835938 148.894531 267.964844 140.703125 240.847656 140.703125 C 227.902344 140.703125 214.90625 142.523438 201.140625 146.277344 C 110.804688 170.800781 71.632812 256.097656 37.707031 385.789062 C -1.632812 536.003906 9.246094 636.695312 67.539062 662.089844 C 77.023438 666.246094 87.027344 668.347656 97.222656 668.347656 C 149.058594 668.347656 196.726562 613.859375 231.542969 574.027344 L 241.019531 563.046875 C 269.40625 529.84375 328.871094 510.808594 404.132812 510.808594 C 485.984375 510.808594 536.292969 526.921875 567.222656 563.097656 L 576.710938 574.101562 C 611.492188 613.882812 659.125 668.324219 710.996094 668.324219 C 721.253906 668.324219 731.21875 666.21875 740.644531 662.089844 C 798.949219 636.707031 809.839844 536.015625 770.585938 385.800781 Z M 280.265625 395.949219 L 241.347656 395.949219 L 241.347656 433.640625 C 241.347656 447.46875 229.183594 459.117188 214.796875 459.117188 C 200.371094 459.117188 188.203125 447.46875 188.203125 433.640625 L 188.203125 395.949219 L 151.648438 395.949219 C 137.859375 395.949219 126.183594 383.773438 126.183594 369.371094 C 126.183594 354.945312 137.847656 342.777344 151.648438 342.777344 L 188.203125 342.777344 L 188.203125 305.050781 C 188.203125 291.25 200.382812 279.574219 214.796875 279.574219 C 229.183594 279.574219 241.347656 291.25 241.347656 305.050781 L 241.347656 342.777344 L 280.265625 342.777344 C 294.042969 342.777344 305.730469 354.945312 305.730469 369.371094 C 305.742188 383.785156 294.054688 395.949219 280.265625 395.949219 Z M 556.625 442.199219 C 535.070312 442.199219 517.550781 424.691406 517.550781 403.148438 C 517.550781 381.609375 535.105469 364.101562 556.625 364.101562 C 578.140625 364.101562 595.636719 381.621094 595.636719 403.148438 C 595.636719 424.691406 578.128906 442.199219 556.625 442.199219 Z M 629.476562 369.34375 C 607.933594 369.34375 590.441406 351.8125 590.441406 330.285156 C 590.441406 308.769531 607.960938 291.25 629.476562 291.25 C 650.992188 291.25 668.523438 308.765625 668.539062 330.285156 C 668.539062 351.828125 650.992188 369.34375 629.476562 369.34375 Z M 629.476562 369.34375 " fill-opacity="1" fill-rule="nonzero"/></g></svg>