<svg xmlns="http://www.w3.org/2000/svg" xmlns:xlink="http://www.w3.org/1999/xlink" width="1080" zoomAndPan="magnify" viewBox="0 0 810 809.999993" height="1080" preserveAspectRatio="xMidYMid meet" version="1.0"><defs><clipPath id="7664493c14"><path d="M 695 503 L 735.125 503 L 735.125 682 L 695 682 Z M 695 503 " clip-rule="nonzero"/></clipPath><clipPath id="9a1239760d"><path d="M 75.125 503 L 115 503 L 115 682 L 75.125 682 Z M 75.125 503 " clip-rule="nonzero"/></clipPath><clipPath id="019d2655dc"><path d="M 136 104 L 675 104 L 675 796.457031 L 136 796.457031 Z M 136 104 " clip-rule="nonzero"/></clipPath><clipPath id="4183e093bd"><path d="M 508 13.457031 L 621 13.457031 L 621 140 L 508 140 Z M 508 13.457031 " clip-rule="nonzero"/></clipPath><clipPath id="ed1b2141fa"><path d="M 190 13.457031 L 303 13.457031 L 303 140 L 190 140 Z M 190 13.457031 " clip-rule="nonzero"/></clipPath></defs><g clip-path="url(#7664493c14)"><path fill="#ffffff" d="M 735.375 503.269531 L 735.375 623.921875 C 735.375 652.09375 718.355469 675.703125 695.761719 681.566406 L 695.761719 503.269531 Z M 735.375 503.269531 " fill-opacity="1" fill-rule="nonzero"/></g><g clip-path="url(#9a1239760d)"><path fill="#ffffff" d="M 114.953125 503.269531 L 114.953125 681.566406 C 92.359375 675.703125 75.339844 652.09375 75.339844 623.921875 L 75.339844 503.269531 Z M 114.953125 503.269531 " fill-opacity="1" fill-rule="nonzero"/></g><path fill="#ffffff" d="M 623.992188 90.480469 L 623.992188 181.871094 C 615.085938 171.660156 605.378906 162.03125 595.097656 153.121094 Z M 623.992188 90.480469 " fill-opacity="1" fill-rule="nonzero"/><g clip-path="url(#019d2655dc)"><path fill="#ffffff" d="M 405.355469 104.023438 C 257.1875 104.023438 136.679688 224.527344 136.679688 372.699219 L 136.679688 757.320312 C 136.679688 778.898438 154.207031 796.425781 175.785156 796.425781 L 634.925781 796.425781 C 656.507812 796.425781 674.035156 778.898438 674.035156 757.320312 L 674.035156 372.699219 C 674.035156 224.527344 553.527344 104.023438 405.355469 104.023438 Z M 610.59375 749.785156 C 610.59375 755.796875 605.742188 760.648438 599.730469 760.648438 L 210.984375 760.648438 C 204.972656 760.648438 200.121094 755.796875 200.121094 749.785156 L 200.121094 508.558594 C 200.121094 395.367188 292.164062 303.320312 405.355469 303.320312 C 518.546875 303.320312 610.59375 395.367188 610.59375 508.558594 Z M 610.59375 749.785156 " fill-opacity="1" fill-rule="nonzero"/></g><path fill="#ffffff" d="M 588.867188 691.34375 L 221.84375 691.34375 L 221.84375 738.925781 L 588.867188 738.925781 Z M 588.867188 691.34375 " fill-opacity="1" fill-rule="nonzero"/><path fill="#ffffff" d="M 405.355469 325.046875 C 304.1875 325.046875 221.84375 407.316406 221.84375 508.558594 L 221.84375 669.617188 L 588.867188 669.617188 L 588.867188 508.558594 C 588.867188 407.316406 506.527344 325.046875 405.355469 325.046875 Z M 501.820312 481.835938 L 308.894531 481.835938 C 302.882812 481.835938 298.03125 476.910156 298.03125 470.972656 C 298.03125 464.960938 302.882812 460.109375 308.894531 460.109375 L 501.820312 460.109375 C 507.832031 460.109375 512.683594 464.960938 512.683594 470.972656 C 512.683594 476.910156 507.832031 481.835938 501.820312 481.835938 Z M 501.820312 481.835938 " fill-opacity="1" fill-rule="nonzero"/><g clip-path="url(#4183e093bd)"><path fill="#ffffff" d="M 620.445312 46.230469 L 577.644531 139.074219 C 556.640625 123.574219 533.46875 110.828125 508.699219 101.34375 L 549.183594 13.496094 Z M 620.445312 46.230469 " fill-opacity="1" fill-rule="nonzero"/></g><g clip-path="url(#ed1b2141fa)"><path fill="#ffffff" d="M 302.015625 101.34375 C 277.246094 110.828125 254.074219 123.574219 233.070312 139.074219 L 190.269531 46.230469 L 261.53125 13.496094 Z M 302.015625 101.34375 " fill-opacity="1" fill-rule="nonzero"/></g><path fill="#ffffff" d="M 215.617188 153.121094 C 205.335938 162.03125 195.632812 171.660156 186.722656 181.871094 L 186.722656 90.480469 Z M 215.617188 153.121094 " fill-opacity="1" fill-rule="nonzero"/></svg>