<svg xmlns="http://www.w3.org/2000/svg" xmlns:xlink="http://www.w3.org/1999/xlink" width="1080" zoomAndPan="magnify" viewBox="0 0 810 809.999993" height="1080" preserveAspectRatio="xMidYMid meet" version="1.0"><defs><clipPath id="9e190f7018"><path d="M 29 10.097656 L 778 10.097656 L 778 657 L 29 657 Z M 29 10.097656 " clip-rule="nonzero"/></clipPath><clipPath id="6ca5d9e102"><path d="M 295 692 L 404 692 L 404 799.847656 L 295 799.847656 Z M 295 692 " clip-rule="nonzero"/></clipPath><clipPath id="de2c68b0dc"><path d="M 546 692 L 655 692 L 655 799.847656 L 546 799.847656 Z M 546 692 " clip-rule="nonzero"/></clipPath></defs><g clip-path="url(#9e190f7018)"><path fill="#ffffff" d="M 673.492188 584.496094 L 301.859375 584.496094 C 300.796875 584.53125 299.738281 584.515625 298.679688 584.445312 C 297.621094 584.375 296.570312 584.25 295.523438 584.074219 C 294.480469 583.898438 293.445312 583.671875 292.421875 583.390625 C 291.398438 583.109375 290.394531 582.78125 289.402344 582.398438 C 288.414062 582.019531 287.445312 581.589844 286.5 581.109375 C 285.554688 580.632812 284.632812 580.109375 283.738281 579.539062 C 282.84375 578.964844 281.980469 578.351562 281.148438 577.695312 C 280.316406 577.039062 279.519531 576.339844 278.757812 575.605469 C 277.996094 574.867188 277.269531 574.09375 276.585938 573.285156 C 275.902344 572.472656 275.257812 571.632812 274.660156 570.757812 C 274.058594 569.882812 273.503906 568.980469 272.996094 568.050781 C 272.484375 567.121094 272.023438 566.167969 271.609375 565.191406 C 271.195312 564.214844 270.832031 563.222656 270.515625 562.207031 C 270.203125 561.195312 269.9375 560.167969 269.726562 559.128906 C 269.515625 558.089844 269.359375 557.042969 269.25 555.988281 C 269.144531 554.933594 269.09375 553.875 269.09375 552.816406 C 269.09375 551.753906 269.144531 550.695312 269.25 549.640625 C 269.359375 548.585938 269.515625 547.539062 269.726562 546.5 C 269.9375 545.460938 270.203125 544.433594 270.515625 543.421875 C 270.832031 542.410156 271.195312 541.414062 271.609375 540.4375 C 272.023438 539.460938 272.484375 538.507812 272.996094 537.578125 C 273.503906 536.648438 274.058594 535.746094 274.660156 534.875 C 275.257812 534 275.902344 533.15625 276.585938 532.347656 C 277.269531 531.539062 277.996094 530.765625 278.757812 530.027344 C 279.519531 529.289062 280.316406 528.59375 281.148438 527.933594 C 281.980469 527.277344 282.84375 526.664062 283.738281 526.09375 C 284.632812 525.523438 285.554688 525 286.5 524.519531 C 287.445312 524.042969 288.414062 523.613281 289.402344 523.230469 C 290.394531 522.851562 291.398438 522.519531 292.421875 522.242188 C 293.445312 521.960938 294.480469 521.734375 295.523438 521.554688 C 296.570312 521.378906 297.621094 521.257812 298.679688 521.1875 C 299.738281 521.117188 300.796875 521.097656 301.859375 521.132812 L 673.492188 521.132812 C 674.507812 521.132812 675.515625 521.09375 676.523438 521.007812 C 677.535156 520.921875 678.539062 520.796875 679.535156 520.625 C 680.535156 520.457031 681.523438 520.246094 682.503906 519.992188 C 683.484375 519.738281 684.453125 519.445312 685.40625 519.109375 C 686.363281 518.773438 687.300781 518.398438 688.226562 517.984375 C 689.148438 517.570312 690.054688 517.117188 690.9375 516.625 C 691.824219 516.136719 692.6875 515.609375 693.527344 515.042969 C 694.367188 514.480469 695.183594 513.878906 695.972656 513.246094 C 696.765625 512.613281 697.527344 511.949219 698.257812 511.25 C 698.992188 510.554688 699.695312 509.828125 700.367188 509.070312 C 701.039062 508.3125 701.679688 507.527344 702.285156 506.71875 C 702.890625 505.90625 703.460938 505.070312 703.996094 504.210938 C 704.53125 503.351562 705.03125 502.472656 705.492188 501.570312 C 705.953125 500.667969 706.375 499.75 706.757812 498.8125 C 707.140625 497.875 707.480469 496.921875 707.785156 495.957031 C 708.085938 494.988281 708.347656 494.011719 708.566406 493.023438 L 776.167969 188.917969 C 776.3125 188.261719 776.4375 187.605469 776.546875 186.945312 C 776.652344 186.285156 776.742188 185.621094 776.8125 184.957031 C 776.882812 184.292969 776.9375 183.625 776.96875 182.957031 C 777.003906 182.289062 777.019531 181.617188 777.015625 180.949219 C 777.011719 180.28125 776.988281 179.613281 776.945312 178.945312 C 776.90625 178.277344 776.84375 177.609375 776.765625 176.945312 C 776.6875 176.28125 776.589844 175.617188 776.472656 174.960938 C 776.359375 174.300781 776.226562 173.644531 776.074219 172.992188 C 775.921875 172.339844 775.75 171.695312 775.5625 171.050781 C 775.371094 170.410156 775.167969 169.773438 774.941406 169.144531 C 774.71875 168.511719 774.476562 167.890625 774.21875 167.273438 C 773.960938 166.65625 773.683594 166.046875 773.390625 165.445312 C 773.097656 164.84375 772.789062 164.25 772.460938 163.664062 C 772.136719 163.082031 771.792969 162.503906 771.433594 161.941406 C 771.078125 161.375 770.703125 160.820312 770.3125 160.277344 C 769.921875 159.730469 769.519531 159.199219 769.101562 158.675781 C 768.679688 158.15625 768.246094 157.644531 767.800781 157.148438 C 767.351562 156.652344 766.890625 156.167969 766.417969 155.695312 C 765.941406 155.222656 765.453125 154.765625 764.953125 154.320312 C 764.453125 153.875 763.941406 153.445312 763.417969 153.03125 C 762.890625 152.613281 762.355469 152.214844 761.808594 151.828125 C 761.261719 151.441406 760.707031 151.070312 760.136719 150.71875 C 759.570312 150.363281 758.992188 150.023438 758.40625 149.703125 C 757.820312 149.378906 757.226562 149.074219 756.621094 148.785156 C 756.019531 148.496094 755.40625 148.222656 754.789062 147.96875 C 754.167969 147.714844 753.542969 147.476562 752.914062 147.257812 C 752.28125 147.035156 751.640625 146.835938 751 146.648438 C 750.355469 146.464844 749.707031 146.300781 749.054688 146.152344 C 748.402344 146.003906 747.746094 145.875 747.085938 145.761719 C 746.425781 145.652344 745.765625 145.558594 745.097656 145.484375 C 744.433594 145.410156 743.765625 145.355469 743.097656 145.316406 C 742.429688 145.28125 741.761719 145.261719 741.09375 145.261719 L 234.257812 145.261719 C 231.679688 145.25 229.132812 145.515625 226.613281 146.050781 L 201.699219 37.921875 C 201.472656 36.941406 201.203125 35.972656 200.894531 35.015625 C 200.589844 34.054688 200.242188 33.113281 199.851562 32.183594 C 199.464844 31.257812 199.039062 30.34375 198.578125 29.453125 C 198.113281 28.558594 197.613281 27.6875 197.074219 26.835938 C 196.539062 25.984375 195.96875 25.160156 195.359375 24.355469 C 194.753906 23.554688 194.113281 22.777344 193.441406 22.027344 C 192.769531 21.28125 192.070312 20.558594 191.335938 19.871094 C 190.605469 19.179688 189.84375 18.523438 189.054688 17.894531 C 188.269531 17.269531 187.457031 16.679688 186.617188 16.121094 C 185.78125 15.5625 184.921875 15.039062 184.039062 14.554688 C 183.160156 14.070312 182.257812 13.621094 181.339844 13.210938 C 180.421875 12.800781 179.488281 12.433594 178.539062 12.101562 C 177.585938 11.769531 176.625 11.480469 175.648438 11.226562 C 174.675781 10.976562 173.691406 10.769531 172.699219 10.601562 C 171.707031 10.433594 170.710938 10.308594 169.707031 10.222656 C 168.707031 10.140625 167.703125 10.097656 166.695312 10.097656 L 65.3125 10.097656 C 64.136719 10.097656 62.964844 10.15625 61.796875 10.273438 C 60.625 10.386719 59.464844 10.558594 58.308594 10.789062 C 57.15625 11.019531 56.019531 11.304688 54.894531 11.644531 C 53.765625 11.988281 52.660156 12.382812 51.574219 12.832031 C 50.488281 13.28125 49.429688 13.785156 48.390625 14.339844 C 47.355469 14.894531 46.347656 15.496094 45.367188 16.148438 C 44.390625 16.804688 43.449219 17.503906 42.539062 18.25 C 41.628906 18.996094 40.761719 19.78125 39.929688 20.613281 C 39.097656 21.445312 38.308594 22.316406 37.5625 23.226562 C 36.816406 24.132812 36.117188 25.078125 35.464844 26.054688 C 34.8125 27.03125 34.207031 28.039062 33.652344 29.078125 C 33.097656 30.113281 32.597656 31.175781 32.148438 32.261719 C 31.695312 33.347656 31.300781 34.453125 30.960938 35.578125 C 30.617188 36.703125 30.332031 37.84375 30.105469 38.996094 C 29.875 40.148438 29.703125 41.308594 29.585938 42.480469 C 29.472656 43.652344 29.414062 44.824219 29.414062 46 C 29.414062 47.175781 29.472656 48.347656 29.585938 49.519531 C 29.703125 50.6875 29.875 51.851562 30.105469 53.003906 C 30.332031 54.15625 30.617188 55.296875 30.960938 56.421875 C 31.300781 57.546875 31.695312 58.652344 32.148438 59.738281 C 32.597656 60.824219 33.097656 61.886719 33.652344 62.921875 C 34.207031 63.960938 34.8125 64.964844 35.464844 65.945312 C 36.117188 66.921875 36.816406 67.863281 37.5625 68.773438 C 38.308594 69.683594 39.097656 70.554688 39.929688 71.382812 C 40.761719 72.214844 41.628906 73.003906 42.539062 73.75 C 43.449219 74.496094 44.390625 75.195312 45.367188 75.847656 C 46.347656 76.503906 47.355469 77.105469 48.390625 77.660156 C 49.429688 78.214844 50.488281 78.714844 51.574219 79.167969 C 52.660156 79.617188 53.765625 80.011719 54.894531 80.351562 C 56.019531 80.695312 57.15625 80.980469 58.308594 81.210938 C 59.464844 81.4375 60.625 81.609375 61.796875 81.726562 C 62.964844 81.839844 64.136719 81.898438 65.3125 81.898438 L 138.117188 81.898438 L 229.734375 478.84375 C 227.902344 480.625 226.136719 482.46875 224.441406 484.378906 C 222.746094 486.289062 221.121094 488.257812 219.574219 490.289062 C 218.023438 492.320312 216.550781 494.40625 215.15625 496.546875 C 213.757812 498.6875 212.445312 500.875 211.210938 503.113281 C 209.980469 505.347656 208.832031 507.628906 207.765625 509.953125 C 206.703125 512.273438 205.726562 514.632812 204.839844 517.027344 C 203.949219 519.421875 203.148438 521.847656 202.441406 524.300781 C 201.730469 526.757812 201.113281 529.234375 200.589844 531.734375 C 200.066406 534.234375 199.632812 536.75 199.292969 539.28125 C 198.957031 541.8125 198.710938 544.355469 198.5625 546.90625 C 198.410156 549.453125 198.355469 552.007812 198.394531 554.5625 C 198.433594 557.117188 198.566406 559.664062 198.796875 562.210938 C 199.023438 564.753906 199.347656 567.285156 199.761719 569.804688 C 200.179688 572.328125 200.6875 574.828125 201.289062 577.3125 C 201.890625 579.792969 202.582031 582.25 203.367188 584.683594 C 204.152344 587.113281 205.023438 589.511719 205.984375 591.878906 C 206.949219 594.246094 207.996094 596.574219 209.128906 598.863281 C 210.265625 601.152344 211.484375 603.394531 212.785156 605.59375 C 214.085938 607.792969 215.464844 609.941406 216.925781 612.035156 C 218.386719 614.132812 219.921875 616.171875 221.53125 618.152344 C 223.144531 620.136719 224.828125 622.054688 226.582031 623.914062 C 228.335938 625.769531 230.15625 627.558594 232.042969 629.28125 C 233.929688 631.003906 235.875 632.65625 237.886719 634.234375 C 239.894531 635.808594 241.960938 637.3125 244.078125 638.738281 C 246.199219 640.160156 248.371094 641.503906 250.589844 642.769531 C 252.8125 644.03125 255.074219 645.210938 257.382812 646.308594 C 259.691406 647.402344 262.035156 648.414062 264.417969 649.335938 C 266.800781 650.257812 269.214844 651.089844 271.65625 651.832031 C 274.101562 652.574219 276.570312 653.226562 279.0625 653.785156 C 281.554688 654.347656 284.066406 654.8125 286.59375 655.1875 C 289.117188 655.558594 291.65625 655.839844 294.203125 656.023438 C 296.753906 656.210938 299.304688 656.300781 301.859375 656.296875 L 673.492188 656.296875 C 674.667969 656.296875 675.84375 656.238281 677.011719 656.125 C 678.183594 656.007812 679.34375 655.835938 680.496094 655.605469 C 681.648438 655.378906 682.789062 655.09375 683.914062 654.75 C 685.039062 654.410156 686.144531 654.015625 687.230469 653.5625 C 688.316406 653.113281 689.378906 652.613281 690.417969 652.058594 C 691.453125 651.503906 692.460938 650.898438 693.4375 650.246094 C 694.414062 649.59375 695.359375 648.894531 696.269531 648.148438 C 697.175781 647.402344 698.046875 646.613281 698.878906 645.78125 C 699.710938 644.949219 700.5 644.082031 701.246094 643.171875 C 701.988281 642.261719 702.691406 641.320312 703.34375 640.34375 C 703.996094 639.363281 704.601562 638.355469 705.152344 637.320312 C 705.707031 636.28125 706.210938 635.222656 706.660156 634.136719 C 707.109375 633.050781 707.507812 631.941406 707.847656 630.816406 C 708.1875 629.691406 708.472656 628.554688 708.703125 627.402344 C 708.933594 626.246094 709.105469 625.085938 709.21875 623.914062 C 709.335938 622.746094 709.394531 621.574219 709.394531 620.398438 C 709.394531 619.222656 709.335938 618.046875 709.21875 616.878906 C 709.105469 615.707031 708.933594 614.546875 708.703125 613.394531 C 708.472656 612.238281 708.1875 611.101562 707.847656 609.976562 C 707.507812 608.851562 707.109375 607.746094 706.660156 606.660156 C 706.210938 605.574219 705.707031 604.511719 705.152344 603.472656 C 704.601562 602.4375 703.996094 601.429688 703.34375 600.453125 C 702.691406 599.472656 701.988281 598.53125 701.246094 597.621094 C 700.5 596.714844 699.710938 595.84375 698.878906 595.011719 C 698.046875 594.179688 697.175781 593.390625 696.269531 592.644531 C 695.359375 591.898438 694.414062 591.199219 693.4375 590.546875 C 692.460938 589.894531 691.453125 589.289062 690.417969 588.734375 C 689.378906 588.183594 688.316406 587.679688 687.230469 587.230469 C 686.144531 586.78125 685.039062 586.382812 683.914062 586.042969 C 682.789062 585.703125 681.648438 585.417969 680.496094 585.1875 C 679.34375 584.957031 678.183594 584.785156 677.011719 584.671875 C 675.84375 584.554688 674.667969 584.496094 673.492188 584.496094 Z M 673.492188 584.496094 " fill-opacity="1" fill-rule="nonzero"/></g><g clip-path="url(#6ca5d9e102)"><path fill="#ffffff" d="M 403.203125 746.046875 C 403.203125 747.808594 403.117188 749.570312 402.945312 751.324219 C 402.769531 753.078125 402.511719 754.824219 402.167969 756.550781 C 401.824219 758.28125 401.398438 759.992188 400.882812 761.679688 C 400.371094 763.367188 399.777344 765.023438 399.105469 766.652344 C 398.429688 768.285156 397.675781 769.875 396.84375 771.429688 C 396.011719 772.988281 395.109375 774.496094 394.128906 775.964844 C 393.148438 777.429688 392.097656 778.84375 390.980469 780.207031 C 389.859375 781.570312 388.679688 782.878906 387.429688 784.125 C 386.183594 785.371094 384.878906 786.554688 383.515625 787.671875 C 382.152344 788.792969 380.738281 789.839844 379.269531 790.820312 C 377.804688 791.800781 376.292969 792.707031 374.738281 793.539062 C 373.183594 794.371094 371.589844 795.121094 369.960938 795.796875 C 368.332031 796.472656 366.671875 797.066406 364.984375 797.578125 C 363.296875 798.089844 361.589844 798.515625 359.859375 798.863281 C 358.128906 799.207031 356.386719 799.464844 354.632812 799.636719 C 352.875 799.808594 351.117188 799.894531 349.355469 799.894531 C 347.589844 799.894531 345.832031 799.808594 344.074219 799.636719 C 342.320312 799.464844 340.578125 799.207031 338.847656 798.863281 C 337.117188 798.515625 335.410156 798.089844 333.722656 797.578125 C 332.035156 797.066406 330.375 796.472656 328.746094 795.796875 C 327.117188 795.121094 325.523438 794.371094 323.96875 793.539062 C 322.414062 792.707031 320.902344 791.800781 319.4375 790.820312 C 317.96875 789.839844 316.554688 788.792969 315.191406 787.671875 C 313.828125 786.554688 312.523438 785.371094 311.277344 784.125 C 310.027344 782.878906 308.847656 781.570312 307.726562 780.207031 C 306.609375 778.84375 305.558594 777.429688 304.578125 775.964844 C 303.597656 774.496094 302.695312 772.988281 301.863281 771.429688 C 301.03125 769.875 300.277344 768.285156 299.601562 766.652344 C 298.929688 765.023438 298.335938 763.367188 297.824219 761.679688 C 297.3125 759.992188 296.882812 758.28125 296.539062 756.550781 C 296.195312 754.824219 295.9375 753.078125 295.761719 751.324219 C 295.589844 749.570312 295.503906 747.808594 295.503906 746.046875 C 295.503906 744.28125 295.589844 742.523438 295.761719 740.769531 C 295.9375 739.011719 296.195312 737.269531 296.539062 735.539062 C 296.882812 733.8125 297.3125 732.101562 297.824219 730.414062 C 298.335938 728.726562 298.929688 727.070312 299.601562 725.4375 C 300.277344 723.808594 301.03125 722.21875 301.863281 720.660156 C 302.695312 719.105469 303.597656 717.59375 304.578125 716.128906 C 305.558594 714.664062 306.609375 713.246094 307.726562 711.882812 C 308.847656 710.519531 310.027344 709.214844 311.277344 707.96875 C 312.523438 706.722656 313.828125 705.539062 315.191406 704.421875 C 316.554688 703.300781 317.96875 702.25 319.4375 701.273438 C 320.902344 700.292969 322.414062 699.386719 323.96875 698.554688 C 325.523438 697.722656 327.117188 696.96875 328.746094 696.296875 C 330.375 695.621094 332.035156 695.027344 333.722656 694.515625 C 335.410156 694.003906 337.117188 693.574219 338.847656 693.230469 C 340.578125 692.886719 342.320312 692.628906 344.074219 692.457031 C 345.832031 692.285156 347.589844 692.195312 349.355469 692.195312 C 351.117188 692.195312 352.875 692.285156 354.632812 692.457031 C 356.386719 692.628906 358.128906 692.886719 359.859375 693.230469 C 361.589844 693.574219 363.296875 694.003906 364.984375 694.515625 C 366.671875 695.027344 368.332031 695.621094 369.960938 696.296875 C 371.589844 696.96875 373.183594 697.722656 374.738281 698.554688 C 376.292969 699.386719 377.804688 700.292969 379.269531 701.273438 C 380.738281 702.25 382.152344 703.300781 383.515625 704.421875 C 384.878906 705.539062 386.183594 706.722656 387.429688 707.96875 C 388.679688 709.214844 389.859375 710.519531 390.980469 711.882812 C 392.097656 713.246094 393.148438 714.664062 394.128906 716.128906 C 395.109375 717.59375 396.011719 719.105469 396.84375 720.660156 C 397.675781 722.21875 398.429688 723.808594 399.105469 725.4375 C 399.777344 727.070312 400.371094 728.726562 400.882812 730.414062 C 401.398438 732.101562 401.824219 733.8125 402.167969 735.539062 C 402.511719 737.269531 402.769531 739.011719 402.945312 740.769531 C 403.117188 742.523438 403.203125 744.28125 403.203125 746.046875 Z M 403.203125 746.046875 " fill-opacity="1" fill-rule="nonzero"/></g><g clip-path="url(#de2c68b0dc)"><path fill="#ffffff" d="M 654.503906 746.046875 C 654.503906 747.808594 654.414062 749.570312 654.242188 751.324219 C 654.070312 753.078125 653.8125 754.824219 653.46875 756.550781 C 653.125 758.28125 652.695312 759.992188 652.183594 761.679688 C 651.671875 763.367188 651.078125 765.023438 650.402344 766.652344 C 649.726562 768.285156 648.976562 769.875 648.144531 771.429688 C 647.3125 772.988281 646.40625 774.496094 645.425781 775.964844 C 644.445312 777.429688 643.398438 778.84375 642.277344 780.207031 C 641.160156 781.570312 639.976562 782.878906 638.730469 784.125 C 637.484375 785.371094 636.179688 786.554688 634.816406 787.671875 C 633.453125 788.792969 632.035156 789.839844 630.570312 790.820312 C 629.101562 791.800781 627.59375 792.707031 626.039062 793.539062 C 624.480469 794.371094 622.890625 795.121094 621.261719 795.796875 C 619.628906 796.472656 617.972656 797.066406 616.285156 797.578125 C 614.597656 798.089844 612.886719 798.515625 611.15625 798.863281 C 609.429688 799.207031 607.6875 799.464844 605.929688 799.636719 C 604.175781 799.808594 602.417969 799.894531 600.652344 799.894531 C 598.890625 799.894531 597.128906 799.808594 595.375 799.636719 C 593.621094 799.464844 591.875 799.207031 590.148438 798.863281 C 588.417969 798.515625 586.707031 798.089844 585.019531 797.578125 C 583.332031 797.066406 581.675781 796.472656 580.046875 795.796875 C 578.414062 795.121094 576.824219 794.371094 575.269531 793.539062 C 573.710938 792.707031 572.203125 791.800781 570.734375 790.820312 C 569.269531 789.839844 567.855469 788.792969 566.492188 787.671875 C 565.128906 786.554688 563.820312 785.371094 562.574219 784.125 C 561.328125 782.878906 560.144531 781.570312 559.027344 780.207031 C 557.90625 778.84375 556.859375 777.429688 555.878906 775.964844 C 554.898438 774.496094 553.992188 772.988281 553.160156 771.429688 C 552.328125 769.875 551.578125 768.285156 550.902344 766.652344 C 550.226562 765.023438 549.632812 763.367188 549.121094 761.679688 C 548.609375 759.992188 548.179688 758.28125 547.835938 756.550781 C 547.492188 754.824219 547.234375 753.078125 547.0625 751.324219 C 546.890625 749.570312 546.804688 747.808594 546.804688 746.046875 C 546.804688 744.28125 546.890625 742.523438 547.0625 740.769531 C 547.234375 739.011719 547.492188 737.269531 547.835938 735.539062 C 548.179688 733.8125 548.609375 732.101562 549.121094 730.414062 C 549.632812 728.726562 550.226562 727.070312 550.902344 725.4375 C 551.578125 723.808594 552.328125 722.21875 553.160156 720.660156 C 553.992188 719.105469 554.898438 717.59375 555.878906 716.128906 C 556.859375 714.664062 557.90625 713.246094 559.027344 711.882812 C 560.144531 710.519531 561.328125 709.214844 562.574219 707.96875 C 563.820312 706.722656 565.128906 705.539062 566.492188 704.421875 C 567.855469 703.300781 569.269531 702.25 570.734375 701.273438 C 572.203125 700.292969 573.710938 699.386719 575.269531 698.554688 C 576.824219 697.722656 578.414062 696.96875 580.046875 696.296875 C 581.675781 695.621094 583.332031 695.027344 585.019531 694.515625 C 586.707031 694.003906 588.417969 693.574219 590.148438 693.230469 C 591.875 692.886719 593.621094 692.628906 595.375 692.457031 C 597.128906 692.285156 598.890625 692.195312 600.652344 692.195312 C 602.417969 692.195312 604.175781 692.285156 605.929688 692.457031 C 607.6875 692.628906 609.429688 692.886719 611.15625 693.230469 C 612.886719 693.574219 614.597656 694.003906 616.285156 694.515625 C 617.972656 695.027344 619.628906 695.621094 621.261719 696.296875 C 622.890625 696.96875 624.480469 697.722656 626.039062 698.554688 C 627.59375 699.386719 629.101562 700.292969 630.570312 701.273438 C 632.035156 702.25 633.453125 703.300781 634.816406 704.421875 C 636.179688 705.539062 637.484375 706.722656 638.730469 707.96875 C 639.976562 709.214844 641.160156 710.519531 642.277344 711.882812 C 643.398438 713.246094 644.445312 714.664062 645.425781 716.128906 C 646.40625 717.59375 647.3125 719.105469 648.144531 720.660156 C 648.976562 722.21875 649.726562 723.808594 650.402344 725.4375 C 651.078125 727.070312 651.671875 728.726562 652.183594 730.414062 C 652.695312 732.101562 653.125 733.8125 653.46875 735.539062 C 653.8125 737.269531 654.070312 739.011719 654.242188 740.769531 C 654.414062 742.523438 654.503906 744.28125 654.503906 746.046875 Z M 654.503906 746.046875 " fill-opacity="1" fill-rule="nonzero"/></g></svg>