<svg xmlns="http://www.w3.org/2000/svg" xmlns:xlink="http://www.w3.org/1999/xlink" width="1080" zoomAndPan="magnify" viewBox="0 0 810 809.999993" height="1080" preserveAspectRatio="xMidYMid meet" version="1.0"><defs><clipPath id="3b399872ca"><path d="M 284 147.117188 L 526 147.117188 L 526 388 L 284 388 Z M 284 147.117188 " clip-rule="nonzero"/></clipPath><clipPath id="3887c96352"><path d="M 9.015625 490 L 197 490 L 197 663 L 9.015625 663 Z M 9.015625 490 " clip-rule="nonzero"/></clipPath></defs><g clip-path="url(#3b399872ca)"><path fill="#ffffff" d="M 525.34375 267.460938 C 525.34375 269.429688 525.296875 271.398438 525.199219 273.367188 C 525.105469 275.335938 524.957031 277.296875 524.765625 279.257812 C 524.574219 281.21875 524.332031 283.171875 524.042969 285.121094 C 523.753906 287.066406 523.417969 289.007812 523.03125 290.941406 C 522.648438 292.871094 522.21875 294.792969 521.738281 296.703125 C 521.261719 298.613281 520.734375 300.511719 520.164062 302.394531 C 519.589844 304.28125 518.972656 306.152344 518.308594 308.003906 C 517.648438 309.859375 516.9375 311.695312 516.183594 313.515625 C 515.429688 315.335938 514.632812 317.136719 513.789062 318.917969 C 512.949219 320.695312 512.0625 322.457031 511.136719 324.191406 C 510.207031 325.929688 509.234375 327.640625 508.222656 329.332031 C 507.210938 331.019531 506.15625 332.683594 505.0625 334.320312 C 503.96875 335.960938 502.835938 337.570312 501.660156 339.152344 C 500.488281 340.734375 499.277344 342.285156 498.027344 343.808594 C 496.777344 345.332031 495.492188 346.820312 494.167969 348.28125 C 492.847656 349.738281 491.488281 351.167969 490.097656 352.558594 C 488.703125 353.953125 487.277344 355.308594 485.820312 356.632812 C 484.359375 357.953125 482.867188 359.242188 481.347656 360.488281 C 479.824219 361.738281 478.269531 362.949219 476.6875 364.125 C 475.109375 365.296875 473.496094 366.429688 471.859375 367.523438 C 470.222656 368.621094 468.558594 369.671875 466.871094 370.683594 C 465.179688 371.699219 463.46875 372.667969 461.730469 373.597656 C 459.992188 374.523438 458.234375 375.410156 456.453125 376.253906 C 454.671875 377.09375 452.875 377.894531 451.054688 378.644531 C 449.234375 379.398438 447.398438 380.109375 445.542969 380.773438 C 443.6875 381.4375 441.820312 382.054688 439.933594 382.625 C 438.050781 383.195312 436.152344 383.722656 434.242188 384.199219 C 432.332031 384.679688 430.410156 385.109375 428.476562 385.496094 C 426.546875 385.878906 424.605469 386.214844 422.65625 386.503906 C 420.710938 386.792969 418.753906 387.035156 416.796875 387.226562 C 414.835938 387.421875 412.871094 387.566406 410.90625 387.664062 C 408.9375 387.757812 406.96875 387.808594 405 387.808594 C 403.03125 387.808594 401.0625 387.757812 399.09375 387.664062 C 397.128906 387.566406 395.164062 387.421875 393.203125 387.226562 C 391.242188 387.035156 389.289062 386.792969 387.339844 386.503906 C 385.394531 386.214844 383.453125 385.878906 381.523438 385.496094 C 379.589844 385.109375 377.667969 384.679688 375.757812 384.199219 C 373.847656 383.722656 371.949219 383.195312 370.066406 382.625 C 368.179688 382.054688 366.3125 381.4375 364.457031 380.773438 C 362.601562 380.109375 360.765625 379.398438 358.945312 378.644531 C 357.125 377.894531 355.324219 377.09375 353.546875 376.253906 C 351.765625 375.410156 350.007812 374.523438 348.269531 373.597656 C 346.53125 372.667969 344.820312 371.699219 343.128906 370.683594 C 341.441406 369.671875 339.777344 368.621094 338.140625 367.523438 C 336.5 366.429688 334.890625 365.296875 333.308594 364.125 C 331.726562 362.949219 330.175781 361.738281 328.652344 360.488281 C 327.132812 359.242188 325.640625 357.953125 324.179688 356.632812 C 322.722656 355.308594 321.296875 353.953125 319.902344 352.558594 C 318.511719 351.167969 317.152344 349.738281 315.828125 348.28125 C 314.507812 346.820312 313.222656 345.332031 311.972656 343.808594 C 310.722656 342.285156 309.511719 340.734375 308.335938 339.152344 C 307.164062 337.570312 306.03125 335.960938 304.9375 334.320312 C 303.84375 332.683594 302.789062 331.019531 301.777344 329.332031 C 300.765625 327.640625 299.792969 325.929688 298.863281 324.191406 C 297.9375 322.457031 297.050781 320.695312 296.207031 318.917969 C 295.367188 317.136719 294.570312 315.335938 293.816406 313.515625 C 293.0625 311.695312 292.351562 309.859375 291.6875 308.003906 C 291.027344 306.152344 290.410156 304.28125 289.835938 302.394531 C 289.265625 300.511719 288.738281 298.613281 288.261719 296.703125 C 287.78125 294.792969 287.351562 292.871094 286.96875 290.941406 C 286.582031 289.007812 286.246094 287.066406 285.957031 285.121094 C 285.667969 283.171875 285.425781 281.21875 285.234375 279.257812 C 285.039062 277.296875 284.894531 275.335938 284.800781 273.367188 C 284.703125 271.398438 284.65625 269.429688 284.65625 267.460938 C 284.65625 265.492188 284.703125 263.523438 284.800781 261.558594 C 284.894531 259.589844 285.039062 257.625 285.234375 255.664062 C 285.425781 253.707031 285.667969 251.75 285.957031 249.804688 C 286.246094 247.855469 286.582031 245.914062 286.96875 243.984375 C 287.351562 242.050781 287.78125 240.128906 288.261719 238.21875 C 288.738281 236.308594 289.265625 234.414062 289.835938 232.527344 C 290.410156 230.644531 291.027344 228.773438 291.6875 226.917969 C 292.351562 225.0625 293.0625 223.226562 293.816406 221.40625 C 294.570312 219.589844 295.367188 217.789062 296.207031 216.007812 C 297.050781 214.226562 297.9375 212.46875 298.863281 210.730469 C 299.792969 208.996094 300.765625 207.28125 301.777344 205.59375 C 302.789062 203.902344 303.84375 202.238281 304.9375 200.601562 C 306.03125 198.964844 307.164062 197.355469 308.335938 195.773438 C 309.511719 194.191406 310.722656 192.636719 311.972656 191.117188 C 313.222656 189.59375 314.507812 188.101562 315.828125 186.644531 C 317.152344 185.183594 318.511719 183.757812 319.902344 182.363281 C 321.296875 180.972656 322.722656 179.613281 324.179688 178.292969 C 325.640625 176.96875 327.132812 175.683594 328.652344 174.433594 C 330.175781 173.183594 331.726562 171.972656 333.308594 170.800781 C 334.890625 169.625 336.5 168.492188 338.140625 167.398438 C 339.777344 166.304688 341.441406 165.25 343.128906 164.238281 C 344.820312 163.226562 346.53125 162.253906 348.269531 161.328125 C 350.007812 160.398438 351.765625 159.511719 353.546875 158.671875 C 355.324219 157.828125 357.125 157.03125 358.945312 156.277344 C 360.765625 155.523438 362.601562 154.816406 364.457031 154.152344 C 366.3125 153.488281 368.179688 152.871094 370.066406 152.296875 C 371.949219 151.726562 373.847656 151.203125 375.757812 150.722656 C 377.667969 150.246094 379.589844 149.8125 381.523438 149.429688 C 383.453125 149.042969 385.394531 148.707031 387.339844 148.417969 C 389.289062 148.128906 391.242188 147.890625 393.203125 147.695312 C 395.164062 147.503906 397.128906 147.359375 399.09375 147.261719 C 401.0625 147.164062 403.03125 147.117188 405 147.117188 C 406.96875 147.117188 408.9375 147.164062 410.90625 147.261719 C 412.871094 147.359375 414.835938 147.503906 416.796875 147.695312 C 418.753906 147.890625 420.710938 148.128906 422.65625 148.417969 C 424.605469 148.707031 426.546875 149.042969 428.476562 149.429688 C 430.410156 149.8125 432.332031 150.246094 434.242188 150.722656 C 436.152344 151.203125 438.050781 151.726562 439.933594 152.296875 C 441.820312 152.871094 443.6875 153.488281 445.542969 154.152344 C 447.398438 154.816406 449.234375 155.523438 451.054688 156.277344 C 452.875 157.03125 454.671875 157.828125 456.453125 158.671875 C 458.234375 159.511719 459.992188 160.398438 461.730469 161.328125 C 463.46875 162.253906 465.179688 163.226562 466.871094 164.238281 C 468.558594 165.25 470.222656 166.304688 471.859375 167.398438 C 473.496094 168.492188 475.109375 169.625 476.6875 170.800781 C 478.269531 171.972656 479.824219 173.183594 481.347656 174.433594 C 482.867188 175.683594 484.359375 176.96875 485.820312 178.292969 C 487.277344 179.613281 488.703125 180.972656 490.097656 182.363281 C 491.488281 183.757812 492.847656 185.183594 494.167969 186.644531 C 495.492188 188.101562 496.777344 189.59375 498.027344 191.117188 C 499.277344 192.636719 500.488281 194.191406 501.660156 195.773438 C 502.835938 197.355469 503.96875 198.964844 505.0625 200.601562 C 506.15625 202.238281 507.210938 203.902344 508.222656 205.59375 C 509.234375 207.28125 510.207031 208.996094 511.136719 210.730469 C 512.0625 212.46875 512.949219 214.226562 513.789062 216.007812 C 514.632812 217.789062 515.429688 219.589844 516.183594 221.40625 C 516.9375 223.226562 517.648438 225.0625 518.308594 226.917969 C 518.972656 228.773438 519.589844 230.644531 520.164062 232.527344 C 520.734375 234.414062 521.261719 236.308594 521.738281 238.21875 C 522.21875 240.128906 522.648438 242.050781 523.03125 243.984375 C 523.417969 245.914062 523.753906 247.855469 524.042969 249.804688 C 524.332031 251.75 524.574219 253.707031 524.765625 255.664062 C 524.957031 257.625 525.105469 259.589844 525.199219 261.558594 C 525.296875 263.523438 525.34375 265.492188 525.34375 267.460938 Z M 525.34375 267.460938 " fill-opacity="1" fill-rule="nonzero"/></g><path fill="#ffffff" d="M 731.652344 370.613281 C 731.652344 372.023438 731.617188 373.425781 731.546875 374.832031 C 731.480469 376.238281 731.375 377.640625 731.238281 379.039062 C 731.101562 380.441406 730.925781 381.835938 730.722656 383.226562 C 730.515625 384.621094 730.273438 386.003906 730 387.386719 C 729.726562 388.765625 729.417969 390.136719 729.074219 391.5 C 728.734375 392.867188 728.359375 394.222656 727.949219 395.566406 C 727.542969 396.914062 727.101562 398.25 726.625 399.574219 C 726.152344 400.898438 725.644531 402.210938 725.109375 403.511719 C 724.570312 404.808594 724 406.097656 723.398438 407.367188 C 722.796875 408.640625 722.164062 409.894531 721.5 411.136719 C 720.839844 412.378906 720.144531 413.601562 719.421875 414.808594 C 718.699219 416.015625 717.945312 417.203125 717.164062 418.371094 C 716.382812 419.542969 715.574219 420.691406 714.734375 421.820312 C 713.898438 422.953125 713.03125 424.058594 712.140625 425.148438 C 711.246094 426.234375 710.328125 427.300781 709.382812 428.34375 C 708.4375 429.386719 707.46875 430.402344 706.472656 431.398438 C 705.480469 432.394531 704.460938 433.363281 703.417969 434.308594 C 702.375 435.253906 701.3125 436.171875 700.222656 437.0625 C 699.136719 437.957031 698.027344 438.820312 696.898438 439.660156 C 695.765625 440.496094 694.617188 441.308594 693.449219 442.089844 C 692.277344 442.871094 691.089844 443.621094 689.882812 444.347656 C 688.675781 445.070312 687.453125 445.761719 686.210938 446.425781 C 684.972656 447.089844 683.714844 447.722656 682.445312 448.324219 C 681.171875 448.925781 679.886719 449.492188 678.585938 450.03125 C 677.285156 450.570312 675.972656 451.078125 674.648438 451.550781 C 673.324219 452.023438 671.988281 452.464844 670.644531 452.875 C 669.296875 453.28125 667.941406 453.65625 666.578125 454 C 665.210938 454.339844 663.839844 454.648438 662.460938 454.925781 C 661.082031 455.199219 659.695312 455.4375 658.304688 455.644531 C 656.910156 455.851562 655.515625 456.023438 654.117188 456.160156 C 652.714844 456.300781 651.3125 456.402344 649.910156 456.472656 C 648.503906 456.542969 647.097656 456.574219 645.691406 456.574219 C 644.285156 456.574219 642.878906 456.542969 641.472656 456.472656 C 640.066406 456.402344 638.664062 456.300781 637.265625 456.160156 C 635.863281 456.023438 634.46875 455.851562 633.078125 455.644531 C 631.6875 455.4375 630.300781 455.199219 628.921875 454.925781 C 627.539062 454.648438 626.167969 454.339844 624.804688 454 C 623.4375 453.65625 622.082031 453.28125 620.738281 452.875 C 619.390625 452.464844 618.054688 452.023438 616.730469 451.550781 C 615.40625 451.078125 614.09375 450.570312 612.792969 450.03125 C 611.496094 449.492188 610.210938 448.925781 608.9375 448.324219 C 607.664062 447.722656 606.410156 447.089844 605.167969 446.425781 C 603.929688 445.761719 602.703125 445.070312 601.496094 444.347656 C 600.292969 443.621094 599.101562 442.871094 597.933594 442.089844 C 596.761719 441.308594 595.613281 440.496094 594.484375 439.660156 C 593.355469 438.820312 592.246094 437.957031 591.15625 437.0625 C 590.070312 436.171875 589.003906 435.253906 587.960938 434.308594 C 586.921875 433.363281 585.902344 432.394531 584.90625 431.398438 C 583.910156 430.402344 582.941406 429.386719 581.996094 428.34375 C 581.054688 427.300781 580.132812 426.234375 579.242188 425.148438 C 578.347656 424.058594 577.484375 422.953125 576.644531 421.820312 C 575.808594 420.691406 574.996094 419.542969 574.214844 418.371094 C 573.433594 417.203125 572.683594 416.015625 571.960938 414.808594 C 571.234375 413.601562 570.542969 412.378906 569.878906 411.136719 C 569.214844 409.894531 568.585938 408.640625 567.984375 407.367188 C 567.382812 406.097656 566.8125 404.808594 566.273438 403.511719 C 565.734375 402.210938 565.226562 400.898438 564.753906 399.574219 C 564.28125 398.25 563.839844 396.914062 563.429688 395.566406 C 563.023438 394.222656 562.648438 392.867188 562.304688 391.5 C 561.964844 390.136719 561.65625 388.765625 561.382812 387.386719 C 561.105469 386.003906 560.867188 384.621094 560.660156 383.226562 C 560.453125 381.835938 560.28125 380.441406 560.144531 379.039062 C 560.003906 377.640625 559.902344 376.238281 559.832031 374.832031 C 559.765625 373.425781 559.730469 372.023438 559.730469 370.613281 C 559.730469 369.207031 559.765625 367.800781 559.832031 366.398438 C 559.902344 364.992188 560.003906 363.589844 560.144531 362.1875 C 560.28125 360.789062 560.453125 359.394531 560.660156 358 C 560.867188 356.609375 561.105469 355.222656 561.382812 353.84375 C 561.65625 352.464844 561.964844 351.09375 562.304688 349.726562 C 562.648438 348.363281 563.023438 347.007812 563.429688 345.660156 C 563.839844 344.316406 564.28125 342.980469 564.753906 341.65625 C 565.226562 340.332031 565.734375 339.019531 566.273438 337.71875 C 566.8125 336.417969 567.382812 335.132812 567.984375 333.863281 C 568.585938 332.589844 569.214844 331.332031 569.878906 330.09375 C 570.542969 328.851562 571.234375 327.628906 571.960938 326.421875 C 572.683594 325.214844 573.433594 324.027344 574.214844 322.859375 C 574.996094 321.6875 575.808594 320.539062 576.644531 319.40625 C 577.484375 318.277344 578.347656 317.167969 579.242188 316.082031 C 580.132812 314.996094 581.054688 313.929688 581.996094 312.886719 C 582.941406 311.84375 583.910156 310.824219 584.90625 309.832031 C 585.902344 308.835938 586.921875 307.867188 587.960938 306.921875 C 589.003906 305.976562 590.070312 305.058594 591.15625 304.167969 C 592.246094 303.273438 593.355469 302.410156 594.484375 301.570312 C 595.613281 300.730469 596.761719 299.921875 597.933594 299.140625 C 599.101562 298.359375 600.292969 297.605469 601.496094 296.882812 C 602.703125 296.160156 603.929688 295.46875 605.167969 294.804688 C 606.410156 294.140625 607.664062 293.507812 608.9375 292.90625 C 610.210938 292.304688 611.496094 291.734375 612.792969 291.199219 C 614.09375 290.660156 615.40625 290.152344 616.730469 289.679688 C 618.054688 289.203125 619.390625 288.765625 620.738281 288.355469 C 622.082031 287.945312 623.4375 287.570312 624.804688 287.230469 C 626.167969 286.886719 627.539062 286.582031 628.921875 286.304688 C 630.300781 286.03125 631.6875 285.789062 633.078125 285.585938 C 634.46875 285.378906 635.863281 285.207031 637.265625 285.066406 C 638.664062 284.929688 640.066406 284.828125 641.472656 284.757812 C 642.878906 284.6875 644.285156 284.652344 645.691406 284.652344 C 647.097656 284.652344 648.503906 284.6875 649.910156 284.757812 C 651.3125 284.828125 652.714844 284.929688 654.117188 285.066406 C 655.515625 285.207031 656.910156 285.378906 658.304688 285.585938 C 659.695312 285.789062 661.082031 286.03125 662.460938 286.304688 C 663.839844 286.582031 665.210938 286.886719 666.578125 287.230469 C 667.941406 287.570312 669.296875 287.945312 670.644531 288.355469 C 671.988281 288.765625 673.324219 289.203125 674.648438 289.679688 C 675.972656 290.152344 677.285156 290.660156 678.585938 291.199219 C 679.886719 291.734375 681.171875 292.304688 682.445312 292.90625 C 683.714844 293.507812 684.972656 294.140625 686.210938 294.804688 C 687.453125 295.46875 688.675781 296.160156 689.882812 296.882812 C 691.089844 297.605469 692.277344 298.359375 693.449219 299.140625 C 694.617188 299.921875 695.765625 300.730469 696.898438 301.570312 C 698.027344 302.410156 699.136719 303.273438 700.222656 304.167969 C 701.3125 305.058594 702.375 305.976562 703.417969 306.921875 C 704.460938 307.867188 705.480469 308.835938 706.472656 309.832031 C 707.46875 310.824219 708.4375 311.84375 709.382812 312.886719 C 710.328125 313.929688 711.246094 314.996094 712.140625 316.082031 C 713.03125 317.167969 713.898438 318.277344 714.734375 319.40625 C 715.574219 320.539062 716.382812 321.6875 717.164062 322.859375 C 717.945312 324.027344 718.699219 325.214844 719.421875 326.421875 C 720.144531 327.628906 720.839844 328.851562 721.5 330.09375 C 722.164062 331.332031 722.796875 332.589844 723.398438 333.863281 C 724 335.132812 724.570312 336.417969 725.109375 337.71875 C 725.644531 339.019531 726.152344 340.332031 726.625 341.65625 C 727.101562 342.980469 727.542969 344.316406 727.949219 345.660156 C 728.359375 347.007812 728.734375 348.363281 729.074219 349.726562 C 729.417969 351.09375 729.726562 352.464844 730 353.84375 C 730.273438 355.222656 730.515625 356.609375 730.722656 358 C 730.925781 359.394531 731.101562 360.789062 731.238281 362.1875 C 731.375 363.589844 731.480469 364.992188 731.546875 366.398438 C 731.617188 367.800781 731.652344 369.207031 731.652344 370.613281 Z M 731.652344 370.613281 " fill-opacity="1" fill-rule="nonzero"/><path fill="#ffffff" d="M 252.710938 370.613281 C 252.710938 372.023438 252.675781 373.425781 252.609375 374.832031 C 252.539062 376.238281 252.433594 377.640625 252.296875 379.039062 C 252.160156 380.441406 251.988281 381.835938 251.78125 383.226562 C 251.574219 384.621094 251.335938 386.003906 251.058594 387.386719 C 250.785156 388.765625 250.476562 390.136719 250.136719 391.5 C 249.792969 392.867188 249.417969 394.222656 249.011719 395.566406 C 248.601562 396.914062 248.160156 398.25 247.6875 399.574219 C 247.210938 400.898438 246.707031 402.210938 246.167969 403.511719 C 245.628906 404.808594 245.058594 406.097656 244.457031 407.367188 C 243.855469 408.640625 243.222656 409.894531 242.5625 411.136719 C 241.898438 412.378906 241.203125 413.601562 240.480469 414.808594 C 239.757812 416.015625 239.007812 417.203125 238.222656 418.371094 C 237.441406 419.542969 236.632812 420.691406 235.796875 421.820312 C 234.957031 422.953125 234.089844 424.058594 233.199219 425.148438 C 232.308594 426.234375 231.386719 427.300781 230.441406 428.34375 C 229.5 429.386719 228.527344 430.402344 227.535156 431.398438 C 226.539062 432.394531 225.519531 433.363281 224.476562 434.308594 C 223.4375 435.253906 222.371094 436.171875 221.285156 437.0625 C 220.195312 437.957031 219.085938 438.820312 217.957031 439.660156 C 216.828125 440.496094 215.675781 441.308594 214.507812 442.089844 C 213.339844 442.871094 212.148438 443.621094 210.941406 444.347656 C 209.738281 445.070312 208.511719 445.761719 207.273438 446.425781 C 206.03125 447.089844 204.773438 447.722656 203.503906 448.324219 C 202.230469 448.925781 200.945312 449.492188 199.644531 450.03125 C 198.347656 450.570312 197.035156 451.078125 195.710938 451.550781 C 194.386719 452.023438 193.050781 452.464844 191.703125 452.875 C 190.355469 453.28125 189 453.65625 187.636719 454 C 186.273438 454.339844 184.902344 454.648438 183.519531 454.925781 C 182.140625 455.199219 180.753906 455.4375 179.363281 455.644531 C 177.972656 455.851562 176.578125 456.023438 175.175781 456.160156 C 173.777344 456.300781 172.375 456.402344 170.96875 456.472656 C 169.5625 456.542969 168.15625 456.574219 166.75 456.574219 C 165.34375 456.574219 163.9375 456.542969 162.53125 456.472656 C 161.128906 456.402344 159.726562 456.300781 158.324219 456.160156 C 156.925781 456.023438 155.527344 455.851562 154.136719 455.644531 C 152.746094 455.4375 151.359375 455.199219 149.980469 454.925781 C 148.601562 454.648438 147.226562 454.339844 145.863281 454 C 144.5 453.65625 143.144531 453.28125 141.796875 452.875 C 140.449219 452.464844 139.117188 452.023438 137.792969 451.550781 C 136.464844 451.078125 135.15625 450.570312 133.855469 450.03125 C 132.554688 449.492188 131.269531 448.925781 129.996094 448.324219 C 128.726562 447.722656 127.46875 447.089844 126.230469 446.425781 C 124.988281 445.761719 123.765625 445.070312 122.558594 444.347656 C 121.351562 443.621094 120.164062 442.871094 118.992188 442.089844 C 117.824219 441.308594 116.671875 440.496094 115.542969 439.660156 C 114.414062 438.820312 113.304688 437.957031 112.21875 437.0625 C 111.128906 436.171875 110.066406 435.253906 109.023438 434.308594 C 107.980469 433.363281 106.960938 432.394531 105.96875 431.398438 C 104.972656 430.402344 104.003906 429.386719 103.058594 428.34375 C 102.113281 427.300781 101.195312 426.234375 100.300781 425.148438 C 99.410156 424.058594 98.542969 422.953125 97.707031 421.820312 C 96.867188 420.691406 96.058594 419.542969 95.277344 418.371094 C 94.496094 417.203125 93.742188 416.015625 93.019531 414.808594 C 92.296875 413.601562 91.601562 412.378906 90.941406 411.136719 C 90.277344 409.894531 89.644531 408.640625 89.042969 407.367188 C 88.441406 406.097656 87.871094 404.808594 87.332031 403.511719 C 86.792969 402.210938 86.289062 400.898438 85.816406 399.574219 C 85.339844 398.25 84.898438 396.914062 84.492188 395.566406 C 84.082031 394.222656 83.707031 392.867188 83.367188 391.5 C 83.023438 390.136719 82.714844 388.765625 82.441406 387.386719 C 82.167969 386.003906 81.925781 384.621094 81.71875 383.226562 C 81.511719 381.835938 81.339844 380.441406 81.203125 379.039062 C 81.066406 377.640625 80.960938 376.238281 80.894531 374.832031 C 80.824219 373.425781 80.789062 372.023438 80.789062 370.613281 C 80.789062 369.207031 80.824219 367.800781 80.894531 366.398438 C 80.960938 364.992188 81.066406 363.589844 81.203125 362.1875 C 81.339844 360.789062 81.511719 359.394531 81.71875 358 C 81.925781 356.609375 82.167969 355.222656 82.441406 353.84375 C 82.714844 352.464844 83.023438 351.09375 83.367188 349.726562 C 83.707031 348.363281 84.082031 347.007812 84.492188 345.660156 C 84.898438 344.316406 85.339844 342.980469 85.816406 341.65625 C 86.289062 340.332031 86.792969 339.019531 87.332031 337.71875 C 87.871094 336.417969 88.441406 335.132812 89.042969 333.863281 C 89.644531 332.589844 90.277344 331.332031 90.941406 330.09375 C 91.601562 328.851562 92.296875 327.628906 93.019531 326.421875 C 93.742188 325.214844 94.496094 324.027344 95.277344 322.859375 C 96.058594 321.6875 96.867188 320.539062 97.707031 319.40625 C 98.542969 318.277344 99.410156 317.167969 100.300781 316.082031 C 101.195312 314.996094 102.113281 313.929688 103.058594 312.886719 C 104.003906 311.84375 104.972656 310.824219 105.96875 309.832031 C 106.960938 308.835938 107.980469 307.867188 109.023438 306.921875 C 110.066406 305.976562 111.128906 305.058594 112.21875 304.167969 C 113.304688 303.273438 114.414062 302.410156 115.542969 301.570312 C 116.671875 300.730469 117.824219 299.921875 118.992188 299.140625 C 120.164062 298.359375 121.351562 297.605469 122.558594 296.882812 C 123.765625 296.160156 124.988281 295.46875 126.230469 294.804688 C 127.46875 294.140625 128.726562 293.507812 129.996094 292.90625 C 131.269531 292.304688 132.554688 291.734375 133.855469 291.199219 C 135.15625 290.660156 136.464844 290.152344 137.792969 289.679688 C 139.117188 289.203125 140.449219 288.765625 141.796875 288.355469 C 143.144531 287.945312 144.5 287.570312 145.863281 287.230469 C 147.226562 286.886719 148.601562 286.582031 149.980469 286.304688 C 151.359375 286.03125 152.746094 285.789062 154.136719 285.585938 C 155.527344 285.378906 156.925781 285.207031 158.324219 285.066406 C 159.726562 284.929688 161.128906 284.828125 162.53125 284.757812 C 163.9375 284.6875 165.34375 284.652344 166.75 284.652344 C 168.15625 284.652344 169.5625 284.6875 170.96875 284.757812 C 172.375 284.828125 173.777344 284.929688 175.175781 285.066406 C 176.578125 285.207031 177.972656 285.378906 179.363281 285.585938 C 180.753906 285.789062 182.140625 286.03125 183.519531 286.304688 C 184.902344 286.582031 186.273438 286.886719 187.636719 287.230469 C 189 287.570312 190.355469 287.945312 191.703125 288.355469 C 193.050781 288.765625 194.386719 289.203125 195.710938 289.679688 C 197.035156 290.152344 198.347656 290.660156 199.644531 291.199219 C 200.945312 291.734375 202.230469 292.304688 203.503906 292.90625 C 204.773438 293.507812 206.03125 294.140625 207.273438 294.804688 C 208.511719 295.46875 209.738281 296.160156 210.941406 296.882812 C 212.148438 297.605469 213.339844 298.359375 214.507812 299.140625 C 215.675781 299.921875 216.828125 300.730469 217.957031 301.570312 C 219.085938 302.410156 220.195312 303.273438 221.285156 304.167969 C 222.371094 305.058594 223.4375 305.976562 224.476562 306.921875 C 225.519531 307.867188 226.539062 308.835938 227.535156 309.832031 C 228.527344 310.824219 229.5 311.84375 230.441406 312.886719 C 231.386719 313.929688 232.308594 314.996094 233.199219 316.082031 C 234.089844 317.167969 234.957031 318.277344 235.796875 319.40625 C 236.632812 320.539062 237.441406 321.6875 238.222656 322.859375 C 239.007812 324.027344 239.757812 325.214844 240.480469 326.421875 C 241.203125 327.628906 241.898438 328.851562 242.5625 330.09375 C 243.222656 331.332031 243.855469 332.589844 244.457031 333.863281 C 245.058594 335.132812 245.628906 336.417969 246.167969 337.71875 C 246.707031 339.019531 247.210938 340.332031 247.6875 341.65625 C 248.160156 342.980469 248.601562 344.316406 249.011719 345.660156 C 249.417969 347.007812 249.792969 348.363281 250.136719 349.726562 C 250.476562 351.09375 250.785156 352.464844 251.058594 353.84375 C 251.335938 355.222656 251.574219 356.609375 251.78125 358 C 251.988281 359.394531 252.160156 360.789062 252.296875 362.1875 C 252.433594 363.589844 252.539062 364.992188 252.609375 366.398438 C 252.675781 367.800781 252.710938 369.207031 252.710938 370.613281 Z M 252.710938 370.613281 " fill-opacity="1" fill-rule="nonzero"/><path fill="#ffffff" d="M 405 422.191406 C 281.765625 422.191406 181.5 522.457031 181.5 645.691406 C 181.5 655.179688 189.203125 662.882812 198.695312 662.882812 L 611.304688 662.882812 C 620.796875 662.882812 628.5 655.179688 628.5 645.691406 C 628.5 522.457031 528.234375 422.191406 405 422.191406 Z M 405 422.191406 " fill-opacity="1" fill-rule="nonzero"/><g clip-path="url(#3887c96352)"><path fill="#ffffff" d="M 196.390625 494.671875 C 185.867188 492.4375 175.175781 490.960938 164.308594 490.960938 C 79 490.960938 9.578125 560.382812 9.578125 645.691406 C 9.578125 655.179688 17.28125 662.882812 26.773438 662.882812 L 150.28125 662.882812 C 148.355469 657.484375 147.117188 651.742188 147.117188 645.691406 C 147.117188 589.265625 165.546875 537.171875 196.390625 494.671875 Z M 196.390625 494.671875 " fill-opacity="1" fill-rule="nonzero"/></g><path fill="#ffffff" d="M 645.691406 490.960938 C 634.824219 490.960938 624.132812 492.4375 613.609375 494.671875 C 644.453125 537.171875 662.882812 589.265625 662.882812 645.691406 C 662.882812 651.742188 661.644531 657.484375 659.71875 662.882812 L 783.226562 662.882812 C 792.71875 662.882812 800.421875 655.179688 800.421875 645.691406 C 800.421875 560.382812 731 490.960938 645.691406 490.960938 Z M 645.691406 490.960938 " fill-opacity="1" fill-rule="nonzero"/></svg>