<svg xmlns="http://www.w3.org/2000/svg" xmlns:xlink="http://www.w3.org/1999/xlink" width="1080" zoomAndPan="magnify" viewBox="0 0 810 809.999993" height="1080" preserveAspectRatio="xMidYMid meet" version="1.0"><defs><clipPath id="d9a4f3ecb0"><path d="M 18.523438 176.496094 L 791.773438 176.496094 L 791.773438 633.246094 L 18.523438 633.246094 Z M 18.523438 176.496094 " clip-rule="nonzero"/></clipPath></defs><g clip-path="url(#d9a4f3ecb0)"><path fill="#000000" d="M 746.320312 325.070312 C 772.816406 317.230469 791.386719 292.425781 791.46875 264.734375 L 791.46875 245.316406 C 791.484375 207.578125 760.789062 176.835938 723.019531 176.804688 L 86.90625 176.804688 C 49.167969 176.851562 18.492188 207.578125 18.523438 245.300781 L 18.523438 264.847656 C 18.601562 292.476562 37.175781 317.261719 63.558594 325.054688 C 81.539062 330.628906 97.03125 341.519531 108.339844 356.5 C 131.75 387.71875 131.765625 431.300781 108.402344 462.476562 C 97.046875 477.519531 81.539062 488.410156 63.671875 493.96875 C 37.207031 501.808594 18.652344 526.578125 18.539062 554.269531 L 18.539062 564.746094 C 18.585938 602.4375 49.28125 633.113281 86.984375 633.144531 L 723.054688 633.144531 C 760.742188 633.113281 791.4375 602.417969 791.484375 564.714844 L 791.484375 554.222656 C 791.4375 526.546875 772.878906 501.746094 746.464844 493.921875 C 728.484375 488.332031 712.976562 477.453125 701.667969 462.476562 C 678.257812 431.253906 678.242188 387.671875 701.605469 356.515625 C 712.945312 341.488281 728.449219 330.59375 746.320312 325.070312 Z M 746.320312 325.070312 " fill-opacity="1" fill-rule="nonzero"/></g><path fill="#000000" d="M 743.589844 315.886719 C 766.074219 309.242188 781.804688 288.242188 781.886719 264.734375 L 781.886719 245.316406 C 781.902344 212.847656 755.503906 186.417969 723.019531 186.386719 L 86.921875 186.386719 C 54.457031 186.417969 28.074219 212.863281 28.105469 245.300781 L 28.105469 264.816406 C 28.183594 288.273438 43.914062 309.257812 66.386719 315.902344 C 86.300781 322.082031 103.46875 334.140625 116.003906 350.75 C 141.953125 385.355469 141.953125 433.679688 116.035156 468.242188 C 103.46875 484.898438 86.300781 496.953125 66.367188 503.136719 C 43.914062 509.777344 28.183594 530.746094 28.089844 554.253906 L 28.089844 564.714844 C 28.121094 597.117188 54.535156 623.515625 86.953125 623.53125 L 723.019531 623.53125 C 755.425781 623.5 781.839844 597.117188 781.871094 564.683594 L 781.871094 554.207031 C 781.839844 530.714844 766.09375 509.699219 743.589844 503.039062 C 723.675781 496.859375 706.507812 484.785156 693.972656 468.191406 C 668.019531 433.585938 668.019531 385.261719 693.925781 350.703125 C 706.507812 334.09375 723.675781 322.050781 743.589844 315.886719 Z M 743.589844 315.886719 " fill-opacity="1" fill-rule="nonzero"/><path fill="#ffffff" d="M 678.65625 339.171875 C 647.433594 380.804688 647.433594 438.074219 678.65625 479.707031 C 693.589844 499.492188 714.382812 514.074219 738.066406 521.40625 C 752.660156 525.667969 762.691406 539.050781 762.722656 554.253906 L 762.722656 564.699219 C 762.691406 586.609375 744.933594 604.367188 723.019531 604.382812 L 581.816406 604.382812 L 581.816406 205.550781 L 723.019531 205.550781 C 744.964844 205.566406 762.738281 223.355469 762.722656 245.300781 L 762.722656 264.734375 C 762.675781 279.921875 752.644531 293.273438 738.066406 297.539062 C 714.382812 304.835938 693.589844 319.402344 678.65625 339.171875 Z M 678.65625 339.171875 " fill-opacity="1" fill-rule="nonzero"/><path fill="#ffffff" d="M 86.9375 205.550781 C 65.011719 205.582031 47.253906 223.375 47.269531 245.300781 L 47.269531 264.75 C 47.316406 279.9375 57.347656 293.289062 71.925781 297.554688 C 95.625 304.867188 116.402344 319.449219 131.335938 339.25 C 162.554688 380.886719 162.554688 438.152344 131.335938 479.785156 C 116.402344 499.574219 95.609375 514.152344 71.925781 521.484375 C 57.363281 525.75 47.332031 539.082031 47.269531 554.253906 L 47.269531 564.699219 C 47.300781 586.609375 65.058594 604.367188 86.96875 604.382812 L 562.652344 604.382812 L 562.652344 205.550781 Z M 288.542969 275.453125 C 308.871094 255.136719 341.835938 255.152344 362.148438 275.484375 C 382.460938 295.8125 382.445312 328.773438 362.117188 349.089844 C 357.214844 353.992188 351.367188 357.855469 344.949219 360.476562 C 338.71875 362.984375 332.0625 364.277344 325.355469 364.277344 C 296.625 364.246094 273.355469 340.929688 273.386719 312.183594 C 273.402344 298.398438 278.882812 285.191406 288.621094 275.453125 Z M 428.949219 534.546875 C 408.621094 554.863281 375.675781 554.84375 355.359375 534.515625 C 335.046875 514.1875 335.0625 481.238281 355.394531 460.925781 C 375.722656 440.613281 408.667969 440.628906 428.984375 460.957031 C 438.722656 470.714844 444.203125 483.9375 444.203125 497.738281 C 444.234375 511.550781 438.742188 524.804688 428.949219 534.546875 Z M 453.242188 324.03125 L 277.746094 499.527344 C 274.011719 503.261719 267.925781 503.261719 264.1875 499.527344 C 260.453125 495.789062 260.453125 489.703125 264.1875 485.96875 L 439.683594 310.472656 C 443.417969 306.738281 449.503906 306.738281 453.242188 310.472656 C 456.976562 314.210938 456.976562 320.292969 453.242188 324.03125 Z M 453.242188 324.03125 " fill-opacity="1" fill-rule="nonzero"/><path fill="#ffffff" d="M 358.21875 312.261719 C 358.234375 316.574219 357.390625 320.855469 355.726562 324.847656 C 348.78125 341.664062 329.539062 349.664062 312.722656 342.714844 C 295.90625 335.769531 287.902344 316.527344 294.851562 299.710938 C 301.796875 282.894531 321.042969 274.890625 337.859375 281.839844 C 350.171875 286.933594 358.21875 298.941406 358.21875 312.261719 Z M 358.21875 312.261719 " fill-opacity="1" fill-rule="nonzero"/><path fill="#ffffff" d="M 424.957031 497.738281 C 424.925781 515.894531 410.1875 530.601562 392.027344 530.570312 C 373.871094 530.539062 359.160156 515.800781 359.195312 497.640625 C 359.226562 479.484375 373.964844 464.773438 392.125 464.808594 C 400.84375 464.824219 409.210938 468.304688 415.375 474.484375 C 421.539062 480.648438 424.988281 489.015625 424.957031 497.738281 Z M 424.957031 497.738281 " fill-opacity="1" fill-rule="nonzero"/></svg>