<svg xmlns="http://www.w3.org/2000/svg" xmlns:xlink="http://www.w3.org/1999/xlink" width="1080" zoomAndPan="magnify" viewBox="0 0 810 809.999993" height="1080" preserveAspectRatio="xMidYMid meet" version="1.0"><defs><clipPath id="08e9b8f6ff"><path d="M 59 16.589844 L 762 16.589844 L 762 795.839844 L 59 795.839844 Z M 59 16.589844 " clip-rule="nonzero"/></clipPath></defs><g clip-path="url(#08e9b8f6ff)"><path fill="#ffffff" d="M 488.835938 125.339844 L 425.78125 125.339844 L 425.78125 188.394531 C 425.78125 196.617188 418.929688 203.472656 410.703125 203.472656 C 402.480469 203.472656 395.625 196.617188 395.625 188.394531 L 395.625 125.339844 L 332.570312 125.339844 C 323.886719 125.339844 317.035156 118.484375 317.035156 109.804688 C 317.035156 101.578125 323.886719 94.726562 332.570312 94.726562 L 395.625 94.726562 L 395.625 31.667969 C 395.625 23.445312 402.480469 16.589844 410.703125 16.589844 C 418.929688 16.589844 425.78125 23.445312 425.78125 31.667969 L 425.78125 94.726562 L 488.835938 94.726562 C 497.519531 94.726562 504.371094 101.578125 504.371094 109.804688 C 504.371094 118.484375 497.519531 125.339844 488.835938 125.339844 Z M 88.117188 775.082031 C 70.753906 759.546875 59.789062 737.15625 59.789062 712.484375 L 59.789062 178.339844 C 59.789062 132.191406 97.710938 94.726562 143.863281 94.726562 L 229.761719 94.726562 C 238.445312 94.726562 245.296875 101.578125 245.296875 109.804688 C 245.296875 118.484375 238.445312 125.339844 229.761719 125.339844 L 143.863281 125.339844 C 114.160156 125.339844 90.402344 149.097656 90.402344 178.339844 L 90.402344 712.484375 C 90.402344 714.308594 90.402344 715.679688 90.859375 717.050781 L 265.402344 485.394531 C 268.601562 481.28125 272.714844 479.453125 277.738281 479.453125 C 282.308594 479.453125 286.878906 481.28125 290.078125 485.394531 L 387.859375 615.160156 L 540.46875 412.285156 C 543.667969 408.628906 548.238281 406.34375 552.804688 406.34375 C 557.832031 406.34375 561.945312 408.628906 565.144531 412.285156 L 731.003906 632.519531 L 731.003906 178.339844 C 731.003906 149.097656 707.246094 125.339844 677.546875 125.339844 L 591.644531 125.339844 C 582.960938 125.339844 576.109375 118.484375 576.109375 109.804688 C 576.109375 101.578125 582.960938 94.726562 591.644531 94.726562 L 677.546875 94.726562 C 723.695312 94.726562 761.617188 132.191406 761.617188 178.339844 L 761.617188 712.484375 C 761.617188 717.050781 761.164062 721.164062 760.707031 725.277344 C 760.25 725.734375 760.25 726.648438 760.25 727.105469 C 759.792969 728.019531 759.792969 728.476562 759.792969 729.386719 C 759.792969 729.84375 759.335938 730.757812 759.335938 731.214844 C 759.335938 732.128906 758.878906 732.585938 758.878906 733.5 L 758.878906 733.957031 L 758.421875 733.957031 L 758.421875 735.785156 L 757.964844 735.785156 L 757.964844 737.15625 L 757.507812 737.15625 C 757.507812 738.070312 757.050781 738.527344 757.050781 739.441406 C 756.59375 739.898438 756.59375 740.8125 756.136719 741.269531 C 756.136719 741.726562 755.679688 742.640625 755.679688 743.097656 C 755.222656 744.011719 755.222656 744.46875 754.765625 744.925781 C 753.851562 746.75 753.394531 748.578125 752.480469 750.40625 C 752.023438 751.320312 751.566406 751.777344 751.109375 752.234375 C 751.109375 753.148438 750.652344 753.605469 750.195312 754.0625 C 750.195312 754.519531 749.738281 755.433594 749.28125 755.890625 C 748.824219 756.347656 748.367188 757.261719 748.367188 757.71875 C 747.910156 758.175781 747.453125 758.632812 746.996094 759.089844 C 746.539062 760.003906 746.539062 760.460938 746.082031 760.917969 C 745.625 761.375 745.167969 761.828125 744.714844 762.742188 C 744.257812 763.199219 743.800781 763.65625 743.34375 764.113281 C 743.34375 764.570312 742.886719 765.027344 742.429688 765.941406 C 741.058594 767.3125 739.6875 768.683594 738.316406 770.054688 C 737.859375 770.511719 737.402344 771.425781 736.945312 771.882812 C 736.488281 772.339844 736.03125 772.796875 735.574219 773.253906 C 735.117188 773.710938 734.660156 774.167969 734.203125 774.625 C 733.289062 775.082031 732.832031 775.539062 732.375 775.996094 C 731.917969 776.453125 731.460938 776.453125 731.003906 776.910156 C 730.546875 777.367188 730.089844 777.820312 729.175781 778.277344 C 728.722656 778.734375 728.265625 779.191406 727.808594 779.648438 C 727.351562 780.105469 726.894531 780.5625 725.980469 780.5625 C 725.523438 781.019531 725.066406 781.476562 724.609375 781.933594 C 724.152344 782.390625 723.238281 782.847656 722.78125 782.847656 C 722.324219 783.304688 721.867188 783.761719 720.953125 784.21875 C 720.496094 784.675781 720.039062 784.675781 719.125 785.132812 C 718.667969 785.589844 718.210938 785.589844 717.753906 786.046875 C 716.839844 786.503906 716.382812 786.960938 715.925781 786.960938 C 715.011719 787.417969 714.554688 787.875 714.097656 787.875 C 713.183594 788.332031 712.726562 788.332031 712.273438 788.789062 C 711.359375 789.246094 710.902344 789.246094 710.445312 789.703125 C 709.53125 789.703125 709.074219 790.160156 708.160156 790.617188 C 707.703125 790.617188 707.246094 791.074219 706.332031 791.074219 C 705.875 791.53125 704.960938 791.53125 704.503906 791.988281 C 704.046875 791.988281 703.132812 792.445312 702.675781 792.445312 C 701.761719 792.902344 701.304688 792.902344 700.390625 792.902344 C 699.933594 793.359375 699.476562 793.359375 698.5625 793.816406 C 698.105469 793.816406 697.191406 793.816406 696.734375 794.269531 C 695.824219 794.269531 695.367188 794.269531 694.453125 794.726562 C 693.996094 794.726562 693.082031 794.726562 692.625 794.726562 C 691.710938 795.183594 691.253906 795.183594 690.339844 795.183594 C 689.882812 795.183594 688.96875 795.640625 688.511719 795.640625 C 687.597656 795.640625 687.140625 795.640625 686.226562 795.640625 C 685.769531 796.097656 684.855469 796.097656 683.941406 796.097656 C 683.484375 796.097656 682.570312 796.097656 682.113281 796.097656 C 681.199219 796.097656 680.742188 796.097656 679.832031 796.097656 C 679.375 796.097656 678.460938 796.097656 677.546875 796.097656 L 143.863281 796.097656 C 142.949219 796.097656 142.492188 796.097656 142.035156 796.097656 L 141.121094 796.097656 C 140.664062 796.097656 140.207031 796.097656 139.292969 796.097656 C 138.835938 796.097656 137.921875 796.097656 137.464844 796.097656 L 137.007812 796.097656 C 136.550781 796.097656 136.09375 796.097656 135.179688 795.640625 C 134.265625 795.640625 133.808594 795.640625 132.894531 795.640625 C 132.4375 795.640625 131.523438 795.183594 131.066406 795.183594 L 130.609375 795.183594 C 130.152344 795.183594 129.695312 795.183594 128.78125 794.726562 C 114.160156 792.445312 100.453125 785.589844 89.03125 775.996094 Z M 758.878906 733.5 L 758.878906 733.957031 L 758.421875 733.957031 L 758.421875 735.785156 L 757.964844 735.785156 L 757.964844 737.15625 L 757.507812 737.15625 Z M 463.25 765.941406 L 375.519531 649.425781 L 277.738281 519.660156 L 105.023438 749.035156 C 115.074219 759.546875 128.78125 765.941406 143.863281 765.941406 Z M 501.175781 765.941406 L 677.546875 765.941406 C 704.503906 765.941406 726.4375 746.292969 730.546875 720.707031 L 730.546875 719.335938 C 730.546875 718.878906 730.546875 718.421875 730.546875 717.964844 C 730.546875 717.507812 731.003906 717.050781 731.003906 716.59375 C 731.003906 716.136719 731.003906 715.679688 731.003906 715.222656 C 731.003906 714.765625 731.003906 714.308594 731.003906 713.851562 C 731.003906 713.394531 731.003906 712.9375 731.003906 712.484375 L 731.003906 683.238281 L 552.804688 446.554688 L 407.046875 640.289062 L 423.953125 662.679688 Z M 359.070312 462.546875 C 317.035156 462.546875 282.765625 428.277344 282.765625 386.242188 C 282.765625 344.203125 317.035156 310.390625 359.070312 310.390625 C 401.109375 310.390625 435.378906 344.203125 435.378906 386.242188 C 435.378906 428.277344 401.109375 462.546875 359.070312 462.546875 Z M 359.070312 340.546875 C 333.941406 340.546875 313.378906 361.109375 313.378906 386.242188 C 313.378906 411.828125 333.941406 432.390625 359.070312 432.390625 C 384.203125 432.390625 404.761719 411.828125 404.761719 386.242188 C 404.761719 361.109375 384.203125 340.546875 359.070312 340.546875 Z M 359.070312 340.546875 " fill-opacity="1" fill-rule="evenodd"/></g></svg>